<?xml version="1.0" standalone="no"?><!DOCTYPE svg PUBLIC "-//W3C//DTD SVG 1.1//EN" "http://www.w3.org/Graphics/SVG/1.1/DTD/svg11.dtd"><svg t="1626250107813" class="icon" viewBox="0 0 1024 1024" version="1.1" xmlns="http://www.w3.org/2000/svg" p-id="1847" xmlns:xlink="http://www.w3.org/1999/xlink" width="200" height="200"><defs><style type="text/css"></style></defs><path d="M255.662 723.5V570.32c0-5.275 4.316-9.591 9.591-9.591h65.818c5.275 0 9.591 4.316 9.591 9.591v-93.274c0-6.649 5.44-12.088 12.088-12.088h60.824c6.65 0 12.088 5.439 12.088 12.088v39.83c0-6.256 5.12-11.376 11.376-11.376h62.248c6.256 0 11.376 5.12 11.376 11.376v-89.172c0-7.268 5.947-13.215 13.215-13.215h58.57c7.268 0 13.215 5.947 13.215 13.215v52.368c0-6.608 5.407-12.015 12.015-12.015h60.97c6.608 0 12.015 5.407 12.015 12.015V723.5l-85 33v22h-85v11h-85v-22h-85v-11l-85-33z" fill="#FFD238" p-id="1848"></path><path d="M425.662 767.5H402.93V508.288c0-12.327-9.993-22.319-22.32-22.319h-39.95v-7.796c0-7.269 5.948-13.215 13.216-13.215h58.57c7.269 0 13.215 5.946 13.215 13.215v40.542c0-7.268 5.947-13.215 13.215-13.215h58.57c7.269 0 13.215 5.947 13.215 13.215V789.5H487.93V548.83c0-12.326-9.993-22.319-22.32-22.319h-39.95V767.5z m156.785-353.01c7.269 0 13.215 5.945 13.215 13.214v53.568c0-7.268 5.947-13.215 13.215-13.215h58.57c7.269 0 13.215 5.947 13.215 13.215V723.5l-22.731 8.826v-220.94c0-12.325-9.993-22.318-22.32-22.318h-39.95V778.5h-22.73V457.82c0-12.328-9.993-22.32-22.32-22.32h-39.95v-7.796c0-7.269 5.948-13.215 13.216-13.215z m-255 146.238c7.269 0 13.215 5.947 13.215 13.215V756.5l-22.731-8.825V604.058c0-12.326-9.993-22.319-22.32-22.319h-39.95v-7.796c0-7.268 5.948-13.215 13.216-13.215z" fill="#F0A600" p-id="1849"></path><path d="M582.447 408.448c10.617 0 19.256 8.639 19.256 19.256v35.328a17.977 17.977 0 0 1 5.975-1.016h60.97c9.956 0 18.055 8.1 18.055 18.057v247.562l-85 32.999v23.907h-84.677v11.324h-97.728V773.54H334.62v-12.907l-85-32.999V570.32c0-8.62 7.013-15.632 15.632-15.632h65.818c1.221 0 2.41 0.14 3.551 0.407v-78.049c0-9.996 8.132-18.129 18.128-18.129h60.824c9.996 0 18.13 8.133 18.13 18.129v22.909a17.68 17.68 0 0 1 5.334-0.82h62.248c1.859 0 3.651 0.288 5.336 0.82v-72.251c0-10.617 8.638-19.256 19.255-19.256h58.57z m-83.16 103.417h-62.248a5.018 5.018 0 0 0-5.012 5.012v266.259h72.27v-266.26a5.018 5.018 0 0 0-5.01-5.011z m83.16-91.335h-58.57a7.182 7.182 0 0 0-7.174 7.174l0.001 85.797c0.212 1.093 0.323 2.222 0.323 3.376v255.582h72.594V427.704a7.182 7.182 0 0 0-7.174-7.174z m-168.873 50.469H352.75a6.054 6.054 0 0 0-6.047 6.047v284.413h72.594V516.877c0-1.156 0.112-2.287 0.324-3.382v-36.449a6.054 6.054 0 0 0-6.047-6.047z m-82.503 95.77h-65.818c-1.924 0-3.55 1.626-3.55 3.551v149.045l72.918 28.31V570.32c0-1.925-1.626-3.55-3.55-3.55z m337.577-92.671h-60.97a5.981 5.981 0 0 0-5.975 5.918v267.658l72.918-28.308V480.073a5.98 5.98 0 0 0-5.973-5.975z" fill="#332D21" p-id="1850"></path><path d="M464.224 266.332c-65.68 0-127.43 25.577-173.872 72.02-46.443 46.443-72.021 108.192-72.021 173.872 0 65.68 25.578 127.428 72.02 173.872 46.444 46.442 108.193 72.019 173.873 72.019 65.68 0 127.429-25.577 173.872-72.019 46.442-46.444 72.02-108.192 72.02-173.872 0-65.68-25.578-127.429-72.02-173.872-46.443-46.443-108.192-72.02-173.872-72.02m0 567.115c-85.802 0-166.468-33.413-227.14-94.084C176.413 678.692 143 598.025 143 512.224c0-85.802 33.413-166.468 94.084-227.14C297.756 224.413 378.422 191 464.224 191c85.802 0 166.468 33.413 227.139 94.084 60.67 60.672 94.084 141.338 94.084 227.14 0 49.212-10.811 96.348-32.141 140.199l115.047 105.369c16.298 14.927 17.413 40.328 2.488 56.625-7.55 8.243-18.33 12.971-29.577 12.971h-0.001c-10.061 0-19.666-3.724-27.048-10.484l-105.37-96.506c-61.24 71.95-149.94 113.049-244.621 113.049" fill="#eee" p-id="1851"></path></svg>